<svg width="54" height="45" viewBox="0 0 54 45" fill="none" xmlns="http://www.w3.org/2000/svg">
<path d="M24 1H29.376V17C30.3573 15.336 31.68 14.0133 33.344 13.032C35.0507 12.008 37.1627 11.496 39.68 11.496C41.472 11.496 43.2 11.88 44.864 12.648C46.528 13.3733 47.9787 14.44 49.216 15.848C50.4533 17.256 51.4347 18.984 52.16 21.032C52.928 23.08 53.312 25.4053 53.312 28.008C53.312 30.6107 52.928 32.936 52.16 34.984C51.4347 37.032 50.4533 38.76 49.216 40.168C47.9787 41.576 46.528 42.664 44.864 43.432C43.2 44.1573 41.472 44.52 39.68 44.52C37.1627 44.52 35.0507 44.0293 33.344 43.048C31.68 42.024 30.3573 40.6587 29.376 38.952L27.968 43.752H24V1ZM38.272 39.912C41.0027 39.912 43.1787 38.888 44.8 36.84C46.464 34.7493 47.296 31.8053 47.296 28.008C47.296 24.2107 46.464 21.288 44.8 19.24C43.1787 17.1493 41.0027 16.104 38.272 16.104C35.5413 16.104 33.344 17.1493 31.68 19.24C30.0587 21.288 29.248 24.2107 29.248 28.008C29.248 31.8053 30.0587 34.7493 31.68 36.84C33.344 38.888 35.5413 39.912 38.272 39.912Z" fill="#B70000"/>
<path d="M0.480011 1.25602H4.38401L5.85601 6.24802C6.83734 4.58402 8.16001 3.26135 9.82401 2.28002C11.5307 1.25602 13.6427 0.744019 16.16 0.744019C17.952 0.744019 19.68 1.10668 21.344 1.83202C23.008 2.55735 24.4587 3.62402 25.696 5.03202C26.9333 6.44002 27.9147 8.16802 28.64 10.216C29.408 12.264 29.792 14.6107 29.792 17.256C29.792 19.8587 29.408 22.184 28.64 24.232C27.9147 26.28 26.9333 28.008 25.696 29.416C24.4587 30.824 23.008 31.912 21.344 32.68C19.68 33.4054 17.952 33.768 16.16 33.768C13.6427 33.768 11.5307 33.2774 9.82401 32.296C8.16001 31.272 6.83734 29.9067 5.85601 28.2V43.304H0.480011V1.25602ZM14.752 29.16C17.4827 29.16 19.6587 28.136 21.28 26.088C22.944 23.9974 23.776 21.0534 23.776 17.256C23.776 13.4587 22.944 10.536 21.28 8.48802C19.6587 6.39735 17.4827 5.35202 14.752 5.35202C12.0213 5.35202 9.82401 6.39735 8.16001 8.48802C6.53868 10.536 5.72801 13.4587 5.72801 17.256C5.72801 21.0534 6.53868 23.9974 8.16001 26.088C9.82401 28.136 12.0213 29.16 14.752 29.16Z" fill="#020067"/>
</svg>
